<svg width="500" height="500" viewBox="0 0 500 500" fill="none" xmlns="http://www.w3.org/2000/svg">
<path d="M354.437 344.773L154.143 500L87.0497 413.407C69.1107 390.281 61.2729 361.539 64.9508 332.503C68.4715 304.798 82.083 279.964 103.438 262.203C104.454 261.334 105.481 260.516 106.529 259.699L116.211 252.207L144.733 230.087L156.941 220.625L220.23 171.586C258.13 142.226 309.349 141.681 347.396 166.567L337.64 174.112L326.932 182.4L316.705 190.332C307.379 186.298 297.351 184.234 287.26 184.234C271.428 184.234 255.479 189.284 242.036 199.71L180.045 247.754L167.608 257.394L138.729 279.776L128.335 287.823C127.465 288.504 126.595 289.196 125.757 289.908C111.611 301.896 102.61 318.483 100.263 336.988C97.7901 356.593 103.071 375.988 115.195 391.612L160.493 450.081L332.653 316.649C356.386 298.27 365.859 268.187 359.215 240.723L369.086 233.053L379.512 224.974L389.068 217.555C406.735 261.784 393.93 314.187 354.448 344.773H354.437Z" fill="#1078FF"/>
<path d="M411.521 42.3983C374.533 -5.3413 305.585 -14.0908 257.824 22.9189L144.134 111.032C121.008 128.95 106.233 154.821 102.556 183.836C100.177 202.519 102.587 221.055 109.377 238.051L139.282 214.883C137.218 206.312 136.705 197.332 137.857 188.32C140.351 168.715 150.316 151.258 165.929 139.156L279.619 51.0429C293.074 40.6169 309.011 35.5663 324.844 35.5663C346.943 35.5663 368.832 45.4265 383.376 64.1933C395.49 79.8166 400.781 99.2121 398.308 118.817C395.814 138.412 385.849 155.879 370.226 167.982L369.105 168.851L359.821 176.04L350.495 183.259L340.394 191.087L330.932 198.432L321.323 205.872L256.536 256.084C240.912 268.187 221.517 273.489 201.912 270.995C194.965 270.115 188.29 268.281 182.024 265.588L151.322 289.384C165.028 298.364 180.714 304.18 197.448 306.297C201.356 306.799 205.265 307.072 209.163 307.156V337.386C209.163 347.215 217.126 355.178 226.955 355.178C236.784 355.178 244.747 347.215 244.747 337.386V301.959C256.735 298.102 268.093 292.161 278.331 284.219L344.428 233.011L353.806 225.728L363.111 218.509L373.097 210.786L382.329 203.619L391.55 196.483L392.032 196.106C415.157 178.167 429.932 152.317 433.61 123.281C437.298 94.2663 429.45 65.5241 411.511 42.3983H411.521Z" fill="#1078FF"/>
</svg>
