<svg width="1000" height="276" viewBox="0 0 1000 276" fill="none" xmlns="http://www.w3.org/2000/svg">
<path d="M73.6942 180.744L24 58H39.2085L81.6674 164.982L124.126 58H139.335L89.6406 180.744H73.6942Z" fill="#1078FF"/>
<path d="M193.087 182.22C183.69 182.22 175.47 180.089 168.43 175.825C161.389 171.562 155.917 165.782 152.022 158.485C148.128 151.199 146.181 143.164 146.181 134.381C146.181 125.598 148.036 117.42 151.746 110.185C155.455 102.949 160.764 97.2103 167.692 92.9368C174.61 88.6735 182.767 86.5417 192.165 86.5417C201.563 86.5417 209.874 88.6735 216.73 92.9368C223.586 97.2001 228.875 102.949 232.584 110.185C236.294 117.42 238.149 125.486 238.149 134.381V139.946H160.467C161.205 145.388 162.967 150.358 165.755 154.867C168.532 159.377 172.273 162.964 176.977 165.618C181.671 168.272 187.113 169.605 193.292 169.605C199.841 169.605 205.344 168.149 209.792 165.249C214.24 162.349 217.704 158.608 220.174 154.027H235.382C232.164 162.308 227.071 169.082 220.081 174.329C213.092 179.586 204.104 182.21 193.108 182.21L193.087 182.22ZM160.641 126.971H223.679C222.439 119.06 219.108 112.45 213.666 107.131C208.224 101.822 201.061 99.1575 192.155 99.1575C183.249 99.1575 176.116 101.812 170.736 107.131C165.355 112.45 161.994 119.06 160.631 126.971H160.641Z" fill="#1078FF"/>
<path d="M255.203 180.744V88.0378H269.11V102.498C272.451 98.0504 276.529 94.279 281.346 91.184C286.163 88.0993 292.343 86.5518 299.885 86.5518C306.311 86.5518 312.337 88.0685 317.963 91.0918C323.59 94.1253 328.161 98.6346 331.686 104.63C335.211 110.625 336.974 118.014 336.974 126.787V180.744H323.067V127.156C323.067 118.752 320.659 111.988 315.832 106.854C311.015 101.73 304.764 99.1572 297.108 99.1572C291.912 99.1572 287.218 100.336 283.017 102.683C278.815 105.03 275.443 108.34 272.912 112.603C270.38 116.866 269.11 121.786 269.11 127.34V180.734H255.203V180.744Z" fill="#1078FF"/>
<path d="M401.303 182.22C391.905 182.22 383.686 180.089 376.646 175.825C369.605 171.562 364.132 165.782 360.238 158.485C356.344 151.199 354.396 143.164 354.396 134.381C354.396 125.598 356.251 117.42 359.961 110.185C363.671 102.949 368.98 97.2103 375.908 92.9368C382.825 88.6735 390.983 86.5417 400.381 86.5417C409.779 86.5417 418.09 88.6735 424.946 92.9368C431.802 97.2001 437.09 102.949 440.8 110.185C444.51 117.42 446.365 125.486 446.365 134.381V139.946H368.683C369.421 145.388 371.183 150.358 373.971 154.867C376.748 159.377 380.489 162.964 385.193 165.618C389.886 168.272 395.328 169.605 401.508 169.605C408.057 169.605 413.56 168.149 418.008 165.249C422.456 162.349 425.92 158.608 428.39 154.027H443.598C440.38 162.308 435.287 169.082 428.297 174.329C421.308 179.586 412.32 182.21 401.324 182.21L401.303 182.22ZM368.857 126.971H431.894C430.654 119.06 427.324 112.45 421.882 107.131C416.44 101.822 409.276 99.1575 400.371 99.1575C391.465 99.1575 384.332 101.812 378.952 107.131C373.571 112.45 370.21 119.06 368.847 126.971H368.857Z" fill="#1078FF"/>
<path d="M466.38 180.744V58H521.629C534.726 58 545.046 61.5562 552.589 68.6583C560.132 75.7707 563.903 85.3734 563.903 97.4869C563.903 109.6 560.132 119.213 552.589 126.315C545.046 133.428 534.726 136.974 521.629 136.974H480.287V180.734H466.38V180.744ZM480.287 124.01H520.706C530.35 124.01 537.637 121.663 542.587 116.969C547.526 112.275 550.006 105.788 550.006 97.4971C550.006 89.2062 547.536 82.9138 542.587 78.2098C537.637 73.516 530.35 71.1589 520.706 71.1589H480.287V123.999V124.01Z" fill="#1078FF"/>
<path d="M618.968 182.22C609.939 182.22 602.068 180.089 595.325 175.825C588.581 171.562 583.365 165.782 579.655 158.485C575.945 151.199 574.09 143.164 574.09 134.381C574.09 125.598 575.945 117.42 579.655 110.185C583.365 102.949 588.581 97.2103 595.325 92.9368C602.058 88.6735 609.939 86.5417 618.968 86.5417C626.633 86.5417 633.213 88.0278 638.716 90.9896C644.209 93.9513 648.698 97.9789 652.162 103.042V88.0278H666.069V180.734H652.162V165.905C648.698 170.855 644.219 174.8 638.716 177.773C633.213 180.745 626.633 182.22 618.968 182.22ZM620.823 169.615C627.74 169.615 633.582 168.006 638.347 164.798C643.102 161.58 646.72 157.286 649.19 151.916C651.66 146.536 652.9 140.694 652.9 134.391C652.9 128.089 651.66 122.093 649.19 116.774C646.72 111.455 643.102 107.192 638.347 103.984C633.592 100.777 627.75 99.1677 620.823 99.1677C613.895 99.1677 608.156 100.777 603.206 103.984C598.256 107.202 594.495 111.466 591.891 116.774C589.299 122.093 587.997 127.966 587.997 134.391C587.997 140.817 589.299 146.536 591.891 151.916C594.484 157.296 598.256 161.59 603.206 164.798C608.145 168.016 614.018 169.615 620.823 169.615Z" fill="#1078FF"/>
<path d="M732.622 218.94C721 218.94 711.541 216.439 704.254 211.428C696.957 206.427 692.018 199.898 689.425 191.864H704.818C706.673 196.435 709.88 199.991 714.461 202.522C719.032 205.053 724.843 206.324 731.894 206.324C742.521 206.324 750.279 203.824 755.168 198.812C760.046 193.811 762.495 186.545 762.495 177.024V164.234C759.032 169.184 754.553 173.171 749.05 176.194C743.546 179.228 736.967 180.734 729.301 180.734C720.272 180.734 712.402 178.664 705.658 174.524C698.915 170.383 693.698 164.726 689.988 157.563C686.279 150.399 684.424 142.426 684.424 133.643C684.424 124.86 686.279 116.743 689.988 109.631C693.698 102.529 698.915 96.9026 705.658 92.7623C712.391 88.6219 720.272 86.5518 729.301 86.5518C736.967 86.5518 743.546 88.007 749.05 90.9073C754.543 93.8076 759.032 97.7942 762.495 102.867V88.0378H776.402V177.967C776.402 191.187 772.6 201.333 764.996 208.374C757.392 215.414 746.611 218.94 732.642 218.94H732.622ZM731.146 168.129C737.94 168.129 743.72 166.581 748.486 163.496C753.241 160.412 756.89 156.24 759.421 150.983C761.952 145.736 763.223 139.956 763.223 133.643C763.223 127.33 761.952 121.406 759.421 116.21C756.89 111.015 753.241 106.874 748.486 103.789C743.731 100.705 737.951 99.1572 731.146 99.1572C724.341 99.1572 718.479 100.705 713.529 103.789C708.579 106.884 704.818 111.025 702.215 116.21C699.622 121.406 698.32 127.217 698.32 133.643C698.32 140.069 699.622 145.726 702.215 150.983C704.808 156.24 708.579 160.412 713.529 163.496C718.469 166.591 724.341 168.129 731.146 168.129Z" fill="#1078FF"/>
<path d="M840.721 182.22C831.323 182.22 823.166 180.089 816.248 175.825C809.32 171.562 804.012 165.782 800.302 158.485C796.592 151.199 794.737 143.164 794.737 134.381C794.737 125.598 796.592 117.42 800.302 110.185C804.012 102.949 809.32 97.2103 816.248 92.9368C823.166 88.6735 831.323 86.5417 840.721 86.5417C850.119 86.5417 858.43 88.6735 865.286 92.9368C872.143 97.2001 877.431 102.949 881.141 110.185C884.85 117.42 886.705 125.486 886.705 134.381C886.705 143.277 884.85 151.188 881.141 158.485C877.431 165.782 872.153 171.562 865.286 175.825C858.43 180.089 850.232 182.22 840.721 182.22ZM840.721 169.615C847.639 169.615 853.48 168.006 858.246 164.798C863.001 161.58 866.619 157.286 869.089 151.916C871.558 146.536 872.798 140.694 872.798 134.391C872.798 128.089 871.558 122.093 869.089 116.774C866.619 111.455 863.001 107.192 858.246 103.984C853.491 100.777 847.649 99.1677 840.721 99.1677C833.793 99.1677 828.116 100.777 823.289 103.984C818.472 107.202 814.824 111.466 812.354 116.774C809.884 122.093 808.644 127.966 808.644 134.391C808.644 140.817 809.874 146.536 812.354 151.916C814.824 157.296 818.472 161.59 823.289 164.798C828.105 168.016 833.916 169.615 840.721 169.615Z" fill="#1078FF"/>
<path d="M938.798 182.22C930.271 182.22 923.066 180.796 917.194 177.957C911.322 175.118 906.843 171.378 903.748 166.735C900.653 162.103 898.931 157.061 898.552 151.629H913.013C913.382 154.724 914.468 157.717 916.261 160.617C918.055 163.517 920.801 165.874 924.511 167.657C928.221 169.451 933.038 170.342 938.972 170.342C940.827 170.342 943.112 170.158 945.828 169.789C948.544 169.42 951.177 168.744 953.709 167.75C956.24 166.766 958.372 165.28 960.104 163.302C961.836 161.324 962.697 158.793 962.697 155.698C962.697 151.865 961.211 148.903 958.249 146.802C955.277 144.701 951.454 143.061 946.75 141.893C942.056 140.714 937.076 139.577 931.829 138.46C926.571 137.343 921.601 135.898 916.907 134.104C912.203 132.311 908.38 129.78 905.408 126.5C902.436 123.231 900.961 118.742 900.961 113.054C900.961 104.651 904.015 98.1327 910.133 93.4902C916.251 88.8579 925.3 86.5417 937.291 86.5417C945.449 86.5417 952.09 87.8126 957.224 90.3439C962.348 92.8752 966.243 96.124 968.907 100.08C971.561 104.036 973.14 108.299 973.632 112.87H959.54C959.048 108.914 957.101 105.522 953.699 102.673C950.296 99.8339 944.711 98.4093 936.922 98.4093C922.216 98.4093 914.857 102.857 914.857 111.763C914.857 115.473 916.343 118.312 919.305 120.29C922.277 122.268 926.1 123.846 930.804 125.014C935.498 126.193 940.478 127.299 945.725 128.355C950.973 129.411 955.953 130.856 960.647 132.711C965.341 134.566 969.174 137.189 972.146 140.592C975.118 143.994 976.593 148.595 976.593 154.406C976.593 163.425 973.16 170.322 966.304 175.077C959.448 179.832 950.265 182.22 938.767 182.22H938.798Z" fill="#1078FF"/>
</svg>
