<svg width="1239" height="291" viewBox="0 0 1239 291" fill="none" xmlns="http://www.w3.org/2000/svg">
<path d="M168.997 200.658L52.4259 291L13.3777 240.603C2.93721 227.143 -1.62441 210.415 0.516141 193.517C2.56521 177.392 10.4871 162.939 22.9156 152.602C23.5072 152.096 24.1048 151.62 24.7147 151.145L30.3496 146.784L46.9495 133.911L54.0542 128.404L90.8887 99.8631C112.947 82.7753 142.756 82.4582 164.899 96.9419L159.222 101.333L152.989 106.157L147.037 110.773C141.609 108.425 135.773 107.224 129.9 107.224C120.686 107.224 111.404 110.163 103.58 116.231L67.5012 144.193L60.2624 149.803L43.4551 162.829L37.4055 167.513C36.8993 167.909 36.3932 168.312 35.9053 168.726C27.6724 175.703 22.4339 185.357 21.0678 196.127C19.6286 207.537 22.7022 218.825 29.7581 227.918L56.1216 261.947L156.319 184.29C170.132 173.593 175.645 156.084 171.778 140.1L177.523 135.636L183.591 130.935L189.153 126.617C199.435 152.358 191.982 182.857 169.003 200.658H168.997Z" fill="#1078FF"/>
<path d="M202.22 24.6758C180.693 -3.10864 140.565 -8.20082 112.769 13.3388L46.6008 64.6205C33.1416 75.0488 24.5428 90.1058 22.4022 106.992C21.0179 117.866 22.4205 128.654 26.3723 138.546L43.7772 125.062C42.5758 120.073 42.277 114.847 42.9478 109.602C44.3993 98.1923 50.1989 88.0323 59.2855 80.9886L125.453 29.707C133.284 23.6391 142.559 20.6996 151.774 20.6996C164.636 20.6996 177.375 26.4382 185.84 37.3605C192.89 46.4533 195.969 57.7414 194.53 69.1516C193.079 80.5556 187.279 90.7217 178.186 97.7654L177.534 98.2716L172.131 102.455L166.703 106.657L160.824 111.212L155.317 115.487L149.725 119.817L112.019 149.041C102.926 156.085 91.6376 159.17 80.2275 157.719C76.1842 157.207 72.2995 156.14 68.6527 154.572L50.7843 168.422C58.761 173.648 67.8904 177.033 77.6296 178.265C79.9043 178.557 82.179 178.716 84.4476 178.765V196.359C84.4476 202.079 89.0824 206.714 94.8027 206.714C100.523 206.714 105.158 202.079 105.158 196.359V175.74C112.134 173.496 118.745 170.038 124.703 165.415L163.172 135.612L168.63 131.374L174.046 127.172L179.857 122.677L185.23 118.506L190.597 114.353L190.877 114.134C204.337 103.693 212.935 88.6483 215.076 71.7495C217.223 54.863 212.655 38.135 202.214 24.6758H202.22Z" fill="#1078FF"/>
<path d="M312.694 187.744L263 65H278.209L320.667 171.982L363.126 65H378.335L328.641 187.744H312.694Z" fill="#1078FF"/>
<path d="M432.087 189.22C422.69 189.22 414.47 187.089 407.43 182.825C400.389 178.562 394.917 172.782 391.022 165.485C387.128 158.199 385.181 150.164 385.181 141.381C385.181 132.598 387.036 124.42 390.746 117.185C394.455 109.949 399.764 104.21 406.692 99.9368C413.61 95.6735 421.767 93.5417 431.165 93.5417C440.563 93.5417 448.874 95.6735 455.73 99.9368C462.586 104.2 467.875 109.949 471.584 117.185C475.294 124.42 477.149 132.486 477.149 141.381V146.946H399.467C400.205 152.388 401.967 157.358 404.755 161.867C407.532 166.377 411.273 169.964 415.977 172.618C420.671 175.272 426.113 176.605 432.292 176.605C438.841 176.605 444.344 175.149 448.792 172.249C453.24 169.349 456.704 165.608 459.174 161.027H474.382C471.164 169.308 466.071 176.082 459.081 181.329C452.092 186.586 443.104 189.21 432.108 189.21L432.087 189.22ZM399.641 133.971H462.679C461.439 126.06 458.108 119.45 452.666 114.131C447.224 108.822 440.061 106.157 431.155 106.157C422.249 106.157 415.116 108.812 409.736 114.131C404.355 119.45 400.994 126.06 399.631 133.971H399.641Z" fill="#1078FF"/>
<path d="M494.203 187.744V95.0378H508.11V109.498C511.451 105.05 515.529 101.279 520.346 98.184C525.163 95.0993 531.343 93.5518 538.885 93.5518C545.311 93.5518 551.337 95.0685 556.963 98.0918C562.59 101.125 567.161 105.635 570.686 111.63C574.211 117.625 575.974 125.014 575.974 133.787V187.744H562.067V134.156C562.067 125.752 559.659 118.988 554.832 113.854C550.015 108.73 543.764 106.157 536.108 106.157C530.912 106.157 526.218 107.336 522.017 109.683C517.815 112.03 514.443 115.34 511.912 119.603C509.38 123.866 508.11 128.786 508.11 134.34V187.734H494.203V187.744Z" fill="#1078FF"/>
<path d="M640.303 189.22C630.905 189.22 622.686 187.089 615.646 182.825C608.605 178.562 603.132 172.782 599.238 165.485C595.344 158.199 593.396 150.164 593.396 141.381C593.396 132.598 595.251 124.42 598.961 117.185C602.671 109.949 607.98 104.21 614.908 99.9368C621.825 95.6735 629.983 93.5417 639.381 93.5417C648.779 93.5417 657.09 95.6735 663.946 99.9368C670.802 104.2 676.09 109.949 679.8 117.185C683.51 124.42 685.365 132.486 685.365 141.381V146.946H607.683C608.421 152.388 610.183 157.358 612.971 161.867C615.748 166.377 619.489 169.964 624.193 172.618C628.886 175.272 634.328 176.605 640.508 176.605C647.057 176.605 652.56 175.149 657.008 172.249C661.456 169.349 664.92 165.608 667.39 161.027H682.598C679.38 169.308 674.287 176.082 667.297 181.329C660.308 186.586 651.32 189.21 640.324 189.21L640.303 189.22ZM607.857 133.971H670.894C669.654 126.06 666.324 119.45 660.882 114.131C655.44 108.822 648.276 106.157 639.371 106.157C630.465 106.157 623.332 108.812 617.952 114.131C612.571 119.45 609.21 126.06 607.847 133.971H607.857Z" fill="#1078FF"/>
<path d="M705.38 187.744V65H760.629C773.726 65 784.046 68.5562 791.589 75.6583C799.132 82.7707 802.903 92.3734 802.903 104.487C802.903 116.6 799.132 126.213 791.589 133.315C784.046 140.428 773.726 143.974 760.629 143.974H719.287V187.734H705.38V187.744ZM719.287 131.01H759.706C769.35 131.01 776.637 128.663 781.587 123.969C786.526 119.275 789.006 112.788 789.006 104.497C789.006 96.2062 786.536 89.9138 781.587 85.2098C776.637 80.516 769.35 78.1589 759.706 78.1589H719.287V130.999V131.01Z" fill="#1078FF"/>
<path d="M857.968 189.22C848.939 189.22 841.068 187.089 834.325 182.825C827.581 178.562 822.365 172.782 818.655 165.485C814.945 158.199 813.09 150.164 813.09 141.381C813.09 132.598 814.945 124.42 818.655 117.185C822.365 109.949 827.581 104.21 834.325 99.9368C841.058 95.6735 848.939 93.5417 857.968 93.5417C865.633 93.5417 872.213 95.0278 877.716 97.9896C883.209 100.951 887.698 104.979 891.162 110.042V95.0278H905.069V187.734H891.162V172.905C887.698 177.855 883.219 181.8 877.716 184.773C872.213 187.745 865.633 189.22 857.968 189.22ZM859.823 176.615C866.74 176.615 872.582 175.006 877.347 171.798C882.102 168.58 885.72 164.286 888.19 158.916C890.66 153.536 891.9 147.694 891.9 141.391C891.9 135.089 890.66 129.093 888.19 123.774C885.72 118.455 882.102 114.192 877.347 110.984C872.592 107.777 866.75 106.168 859.823 106.168C852.895 106.168 847.156 107.777 842.206 110.984C837.256 114.202 833.495 118.466 830.891 123.774C828.299 129.093 826.997 134.966 826.997 141.391C826.997 147.817 828.299 153.536 830.891 158.916C833.484 164.296 837.256 168.59 842.206 171.798C847.145 175.016 853.018 176.615 859.823 176.615Z" fill="#1078FF"/>
<path d="M971.622 225.94C960 225.94 950.541 223.439 943.254 218.428C935.957 213.427 931.018 206.898 928.425 198.864H943.818C945.673 203.434 948.88 206.991 953.461 209.522C958.032 212.053 963.843 213.324 970.894 213.324C981.521 213.324 989.279 210.824 994.168 205.812C999.046 200.811 1001.5 193.545 1001.5 184.024V171.234C998.032 176.184 993.553 180.171 988.05 183.194C982.546 186.228 975.967 187.734 968.301 187.734C959.272 187.734 951.402 185.664 944.658 181.524C937.915 177.383 932.698 171.726 928.988 164.563C925.279 157.399 923.424 149.426 923.424 140.643C923.424 131.86 925.279 123.743 928.988 116.631C932.698 109.529 937.915 103.903 944.658 99.7623C951.391 95.6219 959.272 93.5518 968.301 93.5518C975.967 93.5518 982.546 95.007 988.05 97.9073C993.543 100.808 998.032 104.794 1001.5 109.867V95.0378H1015.4V184.967C1015.4 198.187 1011.6 208.333 1004 215.374C996.392 222.414 985.611 225.94 971.642 225.94H971.622ZM970.146 175.129C976.94 175.129 982.72 173.581 987.486 170.496C992.241 167.412 995.89 163.24 998.421 157.983C1000.95 152.736 1002.22 146.956 1002.22 140.643C1002.22 134.33 1000.95 128.406 998.421 123.21C995.89 118.015 992.241 113.874 987.486 110.789C982.731 107.705 976.951 106.157 970.146 106.157C963.341 106.157 957.479 107.705 952.529 110.789C947.579 113.884 943.818 118.025 941.215 123.21C938.622 128.406 937.32 134.217 937.32 140.643C937.32 147.069 938.622 152.726 941.215 157.983C943.808 163.24 947.579 167.412 952.529 170.496C957.469 173.591 963.341 175.129 970.146 175.129Z" fill="#1078FF"/>
<path d="M1079.72 189.22C1070.32 189.22 1062.17 187.089 1055.25 182.825C1048.32 178.562 1043.01 172.782 1039.3 165.485C1035.59 158.199 1033.74 150.164 1033.74 141.381C1033.74 132.598 1035.59 124.42 1039.3 117.185C1043.01 109.949 1048.32 104.21 1055.25 99.9368C1062.17 95.6735 1070.32 93.5417 1079.72 93.5417C1089.12 93.5417 1097.43 95.6735 1104.29 99.9368C1111.14 104.2 1116.43 109.949 1120.14 117.185C1123.85 124.42 1125.71 132.486 1125.71 141.381C1125.71 150.277 1123.85 158.188 1120.14 165.485C1116.43 172.782 1111.15 178.562 1104.29 182.825C1097.43 187.089 1089.23 189.22 1079.72 189.22ZM1079.72 176.615C1086.64 176.615 1092.48 175.006 1097.25 171.798C1102 168.58 1105.62 164.286 1108.09 158.916C1110.56 153.536 1111.8 147.694 1111.8 141.391C1111.8 135.089 1110.56 129.093 1108.09 123.774C1105.62 118.455 1102 114.192 1097.25 110.984C1092.49 107.777 1086.65 106.168 1079.72 106.168C1072.79 106.168 1067.12 107.777 1062.29 110.984C1057.47 114.202 1053.82 118.466 1051.35 123.774C1048.88 129.093 1047.64 134.966 1047.64 141.391C1047.64 147.817 1048.87 153.536 1051.35 158.916C1053.82 164.296 1057.47 168.59 1062.29 171.798C1067.11 175.016 1072.92 176.615 1079.72 176.615Z" fill="#1078FF"/>
<path d="M1177.8 189.22C1169.27 189.22 1162.07 187.796 1156.19 184.957C1150.32 182.118 1145.84 178.378 1142.75 173.735C1139.65 169.103 1137.93 164.061 1137.55 158.629H1152.01C1152.38 161.724 1153.47 164.717 1155.26 167.617C1157.05 170.517 1159.8 172.874 1163.51 174.657C1167.22 176.451 1172.04 177.342 1177.97 177.342C1179.83 177.342 1182.11 177.158 1184.83 176.789C1187.54 176.42 1190.18 175.744 1192.71 174.75C1195.24 173.766 1197.37 172.28 1199.1 170.302C1200.84 168.324 1201.7 165.793 1201.7 162.698C1201.7 158.865 1200.21 155.903 1197.25 153.802C1194.28 151.701 1190.45 150.061 1185.75 148.893C1181.06 147.714 1176.08 146.577 1170.83 145.46C1165.57 144.343 1160.6 142.898 1155.91 141.104C1151.2 139.311 1147.38 136.78 1144.41 133.5C1141.44 130.231 1139.96 125.742 1139.96 120.054C1139.96 111.651 1143.01 105.133 1149.13 100.49C1155.25 95.8579 1164.3 93.5417 1176.29 93.5417C1184.45 93.5417 1191.09 94.8126 1196.22 97.3439C1201.35 99.8752 1205.24 103.124 1207.91 107.08C1210.56 111.036 1212.14 115.299 1212.63 119.87H1198.54C1198.05 115.914 1196.1 112.522 1192.7 109.673C1189.3 106.834 1183.71 105.409 1175.92 105.409C1161.22 105.409 1153.86 109.857 1153.86 118.763C1153.86 122.473 1155.34 125.312 1158.31 127.29C1161.28 129.268 1165.1 130.846 1169.8 132.014C1174.5 133.193 1179.48 134.299 1184.73 135.355C1189.97 136.411 1194.95 137.856 1199.65 139.711C1204.34 141.566 1208.17 144.189 1211.15 147.592C1214.12 150.994 1215.59 155.595 1215.59 161.406C1215.59 170.425 1212.16 177.322 1205.3 182.077C1198.45 186.832 1189.27 189.22 1177.77 189.22H1177.8Z" fill="#1078FF"/>
</svg>
